# xmcd CD database file
# Copyright (C) 1993-1998 Ti Kan
#
# Track frame offsets:
#	150
#	4185
#	19580
#	44715
#	63530
#	82860
#	101675
#	119575
#	141142
#	156220
#	173520
#	195282
#	208065
#	233277
#	251110
#	267402
#	280862
#	302815
#	315187
#
# Disc length: 4267 seconds
#
# Revision: 1
# Processed by: cddbd v1.4b41PL1 Copyright (c) Steve Scherf et al.
# Submitted via: CDValet v3.31 - Copyright (c) 1997 Greg Leichner
#
DISCID=fb10a913
DTITLE=Various Artist - Gladiators
DYEAR=1900
DGENRE=
TTITLE0=Gladiator Anthem
TTITLE1=Try Me Out
TTITLE2=The Power: Snap
TTITLE3=Here Comes The Hotstepper
TTITLE4=Hangin' Tough
TTITLE5=Bad as you Wanna Be
TTITLE6=Mr NAtural
TTITLE7=Rebel Yell
TTITLE8=Mama Said Knock
TTITLE9=Bad Boys
TTITLE10=Bad to the Bone
TTITLE11=Hit Me With Your Best Shot
TTITLE12=Man Of War
TTITLE13=A Grl Like You
TTITLE14=Pump Up  The Jam
TTITLE15=Oh, Pretty Wonman
TTITLE16=Sisters are doin it for themselves
TTITLE17=O Forytuna (Carmina Burana)
TTITLE18=Gladiator Finale
EXTD=
EXTT0=
EXTT1=
EXTT2=
EXTT3=
EXTT4=
EXTT5=
EXTT6=
EXTT7=
EXTT8=
EXTT9=
EXTT10=
EXTT11=
EXTT12=
EXTT13=
EXTT14=
EXTT15=
EXTT16=
EXTT17=
EXTT18=
PLAYORDER=
